{
  "accessors": [
    {
      "bufferView": 1,
      "componentType": 5126,
      "count": 64,
      "max": [
        1357.634033203125,
        606.4429931640625,
        382.02499389648438
      ],
      "min": [
        1087.488037109375,
        214.34178161621094,
        373.52499389648438
      ],
      "type": "VEC3"
    },
    {
      "bufferView": 1,
      "byteOffset": 768,
      "componentType": 5126,
      "count": 64,
      "max": [
        1,
        1,
        1
      ],
      "min": [
        -0.99999994039535522,
        -1,
        -1
      ],
      "type": "VEC3"
    },
    {
      "bufferView": 2,
      "componentType": 5126,
      "count": 64,
      "max": [
        1,
        0.00037446196074597538,
        0,
        1
      ],
      "min": [
        -1,
        -1,
        0,
        -1
      ],
      "type": "VEC4"
    },
    {
      "bufferView": 0,
      "componentType": 5125,
      "count": 156,
      "max": [
        63
      ],
      "min": [
        0
      ],
      "type": "SCALAR"
    },
    {
      "bufferView": 1,
      "byteOffset": 1536,
      "componentType": 5126,
      "count": 44169,
      "max": [
        1400,
        618.4580078125,
        714.280029296875
      ],
      "min": [
        0,
        0,
        0
      ],
      "type": "VEC3"
    },
    {
      "bufferView": 1,
      "byteOffset": 531564,
      "componentType": 5126,
      "count": 44169,
      "max": [
        1,
        1,
        1
      ],
      "min": [
        -1,
        -1,
        -1
      ],
      "type": "VEC3"
    },
    {
      "bufferView": 2,
      "byteOffset": 1024,
      "componentType": 5126,
      "count": 44169,
      "max": [
        1,
        1,
        1,
        1
      ],
      "min": [
        -1,
        -1,
        -1,
        -1
      ],
      "type": "VEC4"
    },
    {
      "bufferView": 0,
      "byteOffset": 624,
      "componentType": 5125,
      "count": 177738,
      "max": [
        44168
      ],
      "min": [
        0
      ],
      "type": "SCALAR"
    },
    {
      "bufferView": 1,
      "byteOffset": 1061592,
      "componentType": 5126,
      "count": 65532,
      "max": [
        1396.862060546875,
        595.041015625,
        713
      ],
      "min": [
        5.00201416015625,
        5,
        458.10800170898438
      ],
      "type": "VEC3"
    },
    {
      "bufferView": 1,
      "byteOffset": 1847976,
      "componentType": 5126,
      "count": 65532,
      "max": [
        1,
        0.99961256980895996,
        1
      ],
      "min": [
        -1,
        -0.99960958957672119,
        -1
      ],
      "type": "VEC3"
    },
    {
      "bufferView": 2,
      "byteOffset": 707728,
      "componentType": 5126,
      "count": 65532,
      "max": [
        1,
        1,
        1,
        1
      ],
      "min": [
        -1,
        -1,
        -1,
        1
      ],
      "type": "VEC4"
    },
    {
      "bufferView": 0,
      "byteOffset": 711576,
      "componentType": 5125,
      "count": 315012,
      "max": [
        65531
      ],
      "min": [
        0
      ],
      "type": "SCALAR"
    },
    {
      "bufferView": 1,
      "byteOffset": 2634360,
      "componentType": 5126,
      "count": 45139,
      "max": [
        1365.738037109375,
        599.8900146484375,
        463.52301025390625
      ],
      "min": [
        1079.0369873046875,
        350.77328491210938,
        388.29800415039062
      ],
      "type": "VEC3"
    },
    {
      "bufferView": 1,
      "byteOffset": 3176028,
      "componentType": 5126,
      "count": 45139,
      "max": [
        1,
        0.99999278783798218,
        1
      ],
      "min": [
        -1,
        -0.99922490119934082,
        -1
      ],
      "type": "VEC3"
    },
    {
      "bufferView": 2,
      "byteOffset": 1756240,
      "componentType": 5126,
      "count": 45139,
      "max": [
        0.9997859001159668,
        1,
        0.99999362230300903,
        1
      ],
      "min": [
        -0.99976092576980591,
        -1,
        -0.99999642372131348,
        1
      ],
      "type": "VEC4"
    },
    {
      "bufferView": 0,
      "byteOffset": 1971624,
      "componentType": 5125,
      "count": 215796,
      "max": [
        45138
      ],
      "min": [
        0
      ],
      "type": "SCALAR"
    },
    {
      "bufferView": 1,
      "byteOffset": 3717696,
      "componentType": 5126,
      "count": 65532,
      "max": [
        1394.2349853515625,
        625.40399169921875,
        439.1820068359375
      ],
      "min": [
        1048.8160400390625,
        317.04098510742188,
        370.52499389648438
      ],
      "type": "VEC3"
    },
    {
      "bufferView": 1,
      "byteOffset": 4504080,
      "componentType": 5126,
      "count": 65532,
      "max": [
        1,
        1,
        0.99999183416366577
      ],
      "min": [
        -1,
        -1,
        -0.99999207258224487
      ],
      "type": "VEC3"
    },
    {
      "bufferView": 2,
      "byteOffset": 2478464,
      "componentType": 5126,
      "count": 65532,
      "max": [
        1,
        1,
        1,
        1
      ],
      "min": [
        -1,
        -1,
        -1,
        -1
      ],
      "type": "VEC4"
    },
    {
      "bufferView": 0,
      "byteOffset": 2834808,
      "componentType": 5125,
      "count": 258060,
      "max": [
        65531
      ],
      "min": [
        0
      ],
      "type": "SCALAR"
    },
    {
      "bufferView": 1,
      "byteOffset": 5290464,
      "componentType": 5126,
      "count": 65532,
      "max": [
        1394.2349853515625,
        549.041015625,
        427.99398803710938
      ],
      "min": [
        4.32598876953125,
        103.93098449707031,
        377.60800170898438
      ],
      "type": "VEC3"
    },
    {
      "bufferView": 1,
      "byteOffset": 6076848,
      "componentType": 5126,
      "count": 65532,
      "max": [
        1,
        1,
        1
      ],
      "min": [
        -1,
        -1,
        -1
      ],
      "type": "VEC3"
    },
    {
      "bufferView": 2,
      "byteOffset": 3526976,
      "componentType": 5126,
      "count": 65532,
      "max": [
        1,
        1,
        1,
        1
      ],
      "min": [
        -1,
        -1,
        -1,
        -1
      ],
      "type": "VEC4"
    },
    {
      "bufferView": 0,
      "byteOffset": 3867048,
      "componentType": 5125,
      "count": 251856,
      "max": [
        65531
      ],
      "min": [
        0
      ],
      "type": "SCALAR"
    },
    {
      "bufferView": 1,
      "byteOffset": 6863232,
      "componentType": 5126,
      "count": 4564,
      "max": [
        16.39898681640625,
        141.5269775390625,
        425.364990234375
      ],
      "min": [
        4.32598876953125,
        137.29798889160156,
        421.16500854492188
      ],
      "type": "VEC3"
    },
    {
      "bufferView": 1,
      "byteOffset": 6918000,
      "componentType": 5126,
      "count": 4564,
      "max": [
        0.94884860515594482,
        0.99992275238037109,
        0.99995750188827515
      ],
      "min": [
        -0.94594448804855347,
        -0.99851429462432861,
        -0.99997460842132568
      ],
      "type": "VEC3"
    },
    {
      "bufferView": 2,
      "byteOffset": 4575488,
      "componentType": 5126,
      "count": 4564,
      "max": [
        0.5513451099395752,
        0.99412697553634644,
        0.99989551305770874,
        1
      ],
      "min": [
        -0.99999833106994629,
        -0.93291944265365601,
        -0.9951397180557251,
        1
      ],
      "type": "VEC4"
    },
    {
      "bufferView": 0,
      "byteOffset": 4874472,
      "componentType": 5125,
      "count": 18054,
      "max": [
        4563
      ],
      "min": [
        0
      ],
      "type": "SCALAR"
    },
    {
      "bufferView": 1,
      "byteOffset": 6972768,
      "componentType": 5126,
      "count": 6906,
      "max": [
        1273.551025390625,
        653.333984375,
        440.53201293945312
      ],
      "min": [
        1174.487060546875,
        618.37799072265625,
        427.83200073242188
      ],
      "type": "VEC3"
    },
    {
      "bufferView": 1,
      "byteOffset": 7055640,
      "componentType": 5126,
      "count": 6906,
      "max": [
        1,
        1,
        1
      ],
      "min": [
        -1,
        -1,
        -1
      ],
      "type": "VEC3"
    },
    {
      "bufferView": 2,
      "byteOffset": 4648512,
      "componentType": 5126,
      "count": 6906,
      "max": [
        1,
        1,
        1,
        1
      ],
      "min": [
        -1,
        -1,
        -1,
        -1
      ],
      "type": "VEC4"
    },
    {
      "bufferView": 0,
      "byteOffset": 4946688,
      "componentType": 5125,
      "count": 33072,
      "max": [
        6905
      ],
      "min": [
        0
      ],
      "type": "SCALAR"
    },
    {
      "bufferView": 1,
      "byteOffset": 7138512,
      "componentType": 5126,
      "count": 54194,
      "max": [
        1382,
        600.45098876953125,
        400.50799560546875
      ],
      "min": [
        1062,
        180.04098510742188,
        364.00799560546875
      ],
      "type": "VEC3"
    },
    {
      "bufferView": 1,
      "byteOffset": 7788840,
      "componentType": 5126,
      "count": 54194,
      "max": [
        1,
        1,
        1
      ],
      "min": [
        -1,
        -1,
        -1
      ],
      "type": "VEC3"
    },
    {
      "bufferView": 2,
      "byteOffset": 4759008,
      "componentType": 5126,
      "count": 54194,
      "max": [
        1,
        1,
        1,
        1
      ],
      "min": [
        -1,
        -1,
        -1,
        -1
      ],
      "type": "VEC4"
    },
    {
      "bufferView": 0,
      "byteOffset": 5078976,
      "componentType": 5125,
      "count": 231054,
      "max": [
        54193
      ],
      "min": [
        0
      ],
      "type": "SCALAR"
    }
  ],
  "asset": {
    "generator": "Sketchfab (OSG glTF plugin)",
    "version": "2.0"
  },
  "bufferViews": [
    {
      "buffer": 0,
      "byteLength": 6003192,
      "byteOffset": 0,
      "name": "floatBufferViews",
      "target": 34963
    },
    {
      "buffer": 0,
      "byteLength": 8439168,
      "byteOffset": 6003192,
      "byteStride": 12,
      "name": "floatBufferViews",
      "target": 34962
    },
    {
      "buffer": 0,
      "byteLength": 5626112,
      "byteOffset": 14442360,
      "byteStride": 16,
      "name": "floatBufferViews",
      "target": 34962
    }
  ],
  "buffers": [
    {
      "byteLength": 20068472,
      "uri": "desk.bin"
    }
  ],
  "materials": [
    {
      "doubleSided": true,
      "emissiveFactor": [
        0,
        0,
        0
      ],
      "name": "Drywall #2",
      "pbrMetallicRoughness": {
        "baseColorFactor": [
          0.5,
          0.5,
          0.5,
          1
        ],
        "metallicFactor": 0,
        "roughnessFactor": 0.59999999999999998
      }
    },
    {
      "doubleSided": true,
      "emissiveFactor": [
        0,
        0,
        0
      ],
      "name": "Paint Matte Black #2",
      "pbrMetallicRoughness": {
        "baseColorFactor": [
          0.26610137195,
          0.26610137195,
          0.26610137195,
          1
        ],
        "metallicFactor": 1,
        "roughnessFactor": 0.59999999999999998
      }
    },
    {
      "doubleSided": true,
      "emissiveFactor": [
        0,
        0,
        0
      ],
      "name": "Procedural Wood (Advanced) #3",
      "pbrMetallicRoughness": {
        "baseColorFactor": [
          0.230152,
          0.230152,
          0.230152,
          1
        ],
        "metallicFactor": 0,
        "roughnessFactor": 0.59999999999999998
      }
    },
    {
      "doubleSided": true,
      "emissiveFactor": [
        0,
        0,
        0
      ],
      "name": "Stainless Steel Brushed Heavy #3",
      "pbrMetallicRoughness": {
        "baseColorFactor": [
          0.5,
          0.5,
          0.5,
          1
        ],
        "metallicFactor": 0,
        "roughnessFactor": 0.59999999999999998
      }
    },
    {
      "doubleSided": true,
      "emissiveFactor": [
        0,
        0,
        0
      ],
      "name": "Stainless Steel Brushed Heavy #4",
      "pbrMetallicRoughness": {
        "baseColorFactor": [
          0.5,
          0.5,
          0.5,
          1
        ],
        "metallicFactor": 0,
        "roughnessFactor": 0.59999999999999998
      }
    },
    {
      "doubleSided": true,
      "emissiveFactor": [
        0,
        0,
        0
      ],
      "name": "Stainless Steel Brushed Heavy #5",
      "pbrMetallicRoughness": {
        "baseColorFactor": [
          0.5,
          0.5,
          0.5,
          1
        ],
        "metallicFactor": 0,
        "roughnessFactor": 0.59999999999999998
      }
    }
  ],
  "meshes": [
    {
      "primitives": [
        {
          "attributes": {
            "NORMAL": 1,
            "POSITION": 0,
            "TANGENT": 2
          },
          "indices": 3,
          "material": 0,
          "mode": 4
        }
      ]
    },
    {
      "primitives": [
        {
          "attributes": {
            "NORMAL": 5,
            "POSITION": 4,
            "TANGENT": 6
          },
          "indices": 7,
          "material": 1,
          "mode": 4
        }
      ]
    },
    {
      "primitives": [
        {
          "attributes": {
            "NORMAL": 9,
            "POSITION": 8,
            "TANGENT": 10
          },
          "indices": 11,
          "material": 2,
          "mode": 4
        }
      ]
    },
    {
      "primitives": [
        {
          "attributes": {
            "NORMAL": 13,
            "POSITION": 12,
            "TANGENT": 14
          },
          "indices": 15,
          "material": 2,
          "mode": 4
        }
      ]
    },
    {
      "primitives": [
        {
          "attributes": {
            "NORMAL": 17,
            "POSITION": 16,
            "TANGENT": 18
          },
          "indices": 19,
          "material": 3,
          "mode": 4
        }
      ]
    },
    {
      "primitives": [
        {
          "attributes": {
            "NORMAL": 21,
            "POSITION": 20,
            "TANGENT": 22
          },
          "indices": 23,
          "material": 3,
          "mode": 4
        }
      ]
    },
    {
      "primitives": [
        {
          "attributes": {
            "NORMAL": 25,
            "POSITION": 24,
            "TANGENT": 26
          },
          "indices": 27,
          "material": 3,
          "mode": 4
        }
      ]
    },
    {
      "primitives": [
        {
          "attributes": {
            "NORMAL": 29,
            "POSITION": 28,
            "TANGENT": 30
          },
          "indices": 31,
          "material": 4,
          "mode": 4
        }
      ]
    },
    {
      "primitives": [
        {
          "attributes": {
            "NORMAL": 33,
            "POSITION": 32,
            "TANGENT": 34
          },
          "indices": 35,
          "material": 5,
          "mode": 4
        }
      ]
    }
  ],
  "nodes": [
    {
      "children": [
        1
      ],
      "name": "RootNode (gltf orientation matrix)",
      "rotation": [
        -0.70710678118654746,
        -0,
        -0,
        0.70710678118654757
      ]
    },
    {
      "children": [
        2
      ],
      "matrix": [
        -1,
        0,
        0,
        0,
        0,
        -1,
        0,
        0,
        0,
        0,
        1,
        0,
        0.00084838870679959655,
        53.251976013183594,
        0,
        1
      ],
      "name": "RootNode (model correction matrix)"
    },
    {
      "children": [
        3
      ],
      "matrix": [
        1,
        0,
        0,
        0,
        0,
        1,
        0,
        0,
        0,
        0,
        1,
        0,
        -700,
        -300.04098510742188,
        -1.3455000043904874e-05,
        1
      ],
      "name": "Office DH1W11400.obj.cleaner.gles"
    },
    {
      "children": [
        4
      ],
      "name": ""
    },
    {
      "children": [
        5,
        6,
        7,
        8,
        9,
        10,
        11,
        12,
        13
      ],
      "name": "Geode"
    },
    {
      "mesh": 0,
      "name": ""
    },
    {
      "mesh": 1,
      "name": ""
    },
    {
      "mesh": 2,
      "name": ""
    },
    {
      "mesh": 3,
      "name": ""
    },
    {
      "mesh": 4,
      "name": ""
    },
    {
      "mesh": 5,
      "name": ""
    },
    {
      "mesh": 6,
      "name": ""
    },
    {
      "mesh": 7,
      "name": ""
    },
    {
      "mesh": 8,
      "name": ""
    }
  ],
  "scene": 0,
  "scenes": [
    {
      "name": "OSG_Scene",
      "nodes": [
        0
      ]
    }
  ]
}

