{
  "accessors": [
    {
      "bufferView": 2,
      "componentType": 5126,
      "count": 1920,
      "max": [
        1.1848000288009644,
        0.032000001519918442,
        0.75110000371932983
      ],
      "min": [
        -0.058600001037120819,
        -1.211400032043457,
        0.741100013256073
      ],
      "type": "VEC3"
    },
    {
      "bufferView": 2,
      "byteOffset": 23040,
      "componentType": 5126,
      "count": 1920,
      "max": [
        0.99207454919815063,
        0.99208128452301025,
        1
      ],
      "min": [
        -0.99207454919815063,
        -0.99208128452301025,
        -1
      ],
      "type": "VEC3"
    },
    {
      "bufferView": 3,
      "componentType": 5126,
      "count": 1920,
      "max": [
        0,
        0,
        0,
        1
      ],
      "min": [
        0,
        0,
        0,
        1
      ],
      "type": "VEC4"
    },
    {
      "bufferView": 0,
      "componentType": 5125,
      "count": 11508,
      "max": [
        1919
      ],
      "min": [
        0
      ],
      "type": "SCALAR"
    },
    {
      "bufferView": 2,
      "byteOffset": 46080,
      "componentType": 5126,
      "count": 2401,
      "max": [
        0.76709997653961182,
        -0.38400000333786011,
        0.741100013256073
      ],
      "min": [
        0.35550001263618469,
        -0.79570001363754272,
        0.73059999942779541
      ],
      "type": "VEC3"
    },
    {
      "bufferView": 2,
      "byteOffset": 74892,
      "componentType": 5126,
      "count": 2401,
      "max": [
        0.98509281873703003,
        0.98509281873703003,
        0.99340009689331055
      ],
      "min": [
        -0.98509281873703003,
        -0.98509281873703003,
        -0.99340009689331055
      ],
      "type": "VEC3"
    },
    {
      "bufferView": 3,
      "byteOffset": 30720,
      "componentType": 5126,
      "count": 2401,
      "max": [
        0.99356281757354736,
        0.99178647994995117,
        0.9931560754776001,
        1
      ],
      "min": [
        -0.9958878755569458,
        -0.99378502368927002,
        -0.99316775798797607,
        1
      ],
      "type": "VEC4"
    },
    {
      "bufferView": 1,
      "componentType": 5126,
      "count": 2401,
      "max": [
        0.7060999870300293,
        0.7060999870300293
      ],
      "min": [
        0.2939000129699707,
        0.2939000129699707
      ],
      "type": "VEC2"
    },
    {
      "bufferView": 0,
      "byteOffset": 46032,
      "componentType": 5125,
      "count": 8778,
      "max": [
        2400
      ],
      "min": [
        0
      ],
      "type": "SCALAR"
    },
    {
      "bufferView": 2,
      "byteOffset": 103704,
      "componentType": 5126,
      "count": 3584,
      "max": [
        0.94419997930526733,
        -0.38460001349449158,
        0.741100013256073
      ],
      "min": [
        0.19570000469684601,
        -0.95169997215270996,
        -0.00079999997979030013
      ],
      "type": "VEC3"
    },
    {
      "bufferView": 2,
      "byteOffset": 146712,
      "componentType": 5126,
      "count": 3584,
      "max": [
        0.9994124174118042,
        0.99996936321258545,
        1
      ],
      "min": [
        -0.99890977144241333,
        -0.99976187944412231,
        -1
      ],
      "type": "VEC3"
    },
    {
      "bufferView": 3,
      "byteOffset": 69136,
      "componentType": 5126,
      "count": 3584,
      "max": [
        0.98835724592208862,
        0.98050069808959961,
        0,
        1
      ],
      "min": [
        -1,
        -0.99999988079071045,
        0,
        -1
      ],
      "type": "VEC4"
    },
    {
      "bufferView": 1,
      "byteOffset": 19208,
      "componentType": 5126,
      "count": 3584,
      "max": [
        0.99949997663497925,
        0.99949997663497925
      ],
      "min": [
        0,
        0
      ],
      "type": "VEC2"
    },
    {
      "bufferView": 0,
      "byteOffset": 81144,
      "componentType": 5125,
      "count": 11424,
      "max": [
        3583
      ],
      "min": [
        0
      ],
      "type": "SCALAR"
    },
    {
      "bufferView": 2,
      "byteOffset": 189720,
      "componentType": 5126,
      "count": 3069,
      "max": [
        0.71990001201629639,
        -0.2085999995470047,
        0.7304999828338623
      ],
      "min": [
        0.18209999799728394,
        -0.97079998254776001,
        -0.00079999997979030013
      ],
      "type": "VEC3"
    },
    {
      "bufferView": 2,
      "byteOffset": 226548,
      "componentType": 5126,
      "count": 3069,
      "max": [
        0.99996936321258545,
        0.99688160419464111,
        1
      ],
      "min": [
        -0.99997007846832275,
        -0.99997007846832275,
        -1
      ],
      "type": "VEC3"
    },
    {
      "bufferView": 3,
      "byteOffset": 126480,
      "componentType": 5126,
      "count": 3069,
      "max": [
        0,
        0,
        0,
        1
      ],
      "min": [
        0,
        0,
        0,
        1
      ],
      "type": "VEC4"
    },
    {
      "bufferView": 1,
      "byteOffset": 47880,
      "componentType": 5126,
      "count": 3069,
      "max": [
        0,
        0
      ],
      "min": [
        0,
        0
      ],
      "type": "VEC2"
    },
    {
      "bufferView": 0,
      "byteOffset": 126840,
      "componentType": 5125,
      "count": 12834,
      "max": [
        3068
      ],
      "min": [
        0
      ],
      "type": "SCALAR"
    }
  ],
  "asset": {
    "generator": "Sketchfab (OSG glTF plugin)",
    "version": "2.0"
  },
  "bufferViews": [
    {
      "buffer": 0,
      "byteLength": 178176,
      "byteOffset": 0,
      "name": "floatBufferViews",
      "target": 34963
    },
    {
      "buffer": 0,
      "byteLength": 72432,
      "byteOffset": 178176,
      "byteStride": 8,
      "name": "floatBufferViews",
      "target": 34962
    },
    {
      "buffer": 0,
      "byteLength": 263376,
      "byteOffset": 250608,
      "byteStride": 12,
      "name": "floatBufferViews",
      "target": 34962
    },
    {
      "buffer": 0,
      "byteLength": 175584,
      "byteOffset": 513984,
      "byteStride": 16,
      "name": "floatBufferViews",
      "target": 34962
    }
  ],
  "buffers": [
    {
      "byteLength": 689568,
      "uri": "dining_table.bin"
    }
  ],
  "images": [
    {
      "uri": "textures/Material__66_baseColor.jpeg"
    }
  ],
  "materials": [
    {
      "doubleSided": true,
      "emissiveFactor": [
        0,
        0,
        0
      ],
      "name": "Material__66",
      "pbrMetallicRoughness": {
        "baseColorFactor": [
          1,
          1,
          1,
          1
        ],
        "baseColorTexture": {
          "index": 0,
          "texCoord": 0
        },
        "metallicFactor": 1,
        "roughnessFactor": 0
      }
    },
    {
      "alphaMode": "BLEND",
      "doubleSided": true,
      "emissiveFactor": [
        0,
        0,
        0
      ],
      "name": "wire_006134006",
      "pbrMetallicRoughness": {
        "baseColorFactor": [
          0.38510080829999999,
          0.38510080829999999,
          0.38510080829999999,
          0.13855013029999999
        ],
        "metallicFactor": 0,
        "roughnessFactor": 0.91675550189999999
      }
    }
  ],
  "meshes": [
    {
      "primitives": [
        {
          "attributes": {
            "NORMAL": 1,
            "POSITION": 0,
            "TANGENT": 2
          },
          "indices": 3,
          "material": 1,
          "mode": 4
        }
      ]
    },
    {
      "primitives": [
        {
          "attributes": {
            "NORMAL": 5,
            "POSITION": 4,
            "TANGENT": 6,
            "TEXCOORD_0": 7
          },
          "indices": 8,
          "material": 0,
          "mode": 4
        }
      ]
    },
    {
      "primitives": [
        {
          "attributes": {
            "NORMAL": 10,
            "POSITION": 9,
            "TANGENT": 11,
            "TEXCOORD_0": 12
          },
          "indices": 13,
          "material": 0,
          "mode": 4
        }
      ]
    },
    {
      "primitives": [
        {
          "attributes": {
            "NORMAL": 15,
            "POSITION": 14,
            "TANGENT": 16,
            "TEXCOORD_0": 17
          },
          "indices": 18,
          "material": 0,
          "mode": 4
        }
      ]
    }
  ],
  "nodes": [
    {
      "children": [
        1
      ],
      "name": "RootNode (gltf orientation matrix)",
      "rotation": [
        -0.70710678118654746,
        -0,
        -0,
        0.70710678118654757
      ]
    },
    {
      "children": [
        2
      ],
      "name": "RootNode (model correction matrix)"
    },
    {
      "children": [
        3
      ],
      "name": "102195.obj.cleaner.materialmerger.gles"
    },
    {
      "children": [
        4,
        5,
        6,
        7
      ],
      "name": "Geode"
    },
    {
      "mesh": 0,
      "name": ""
    },
    {
      "mesh": 1,
      "name": ""
    },
    {
      "mesh": 2,
      "name": ""
    },
    {
      "mesh": 3,
      "name": ""
    }
  ],
  "samplers": [
    {
      "magFilter": 9729,
      "minFilter": 9987,
      "wrapS": 10497,
      "wrapT": 10497
    }
  ],
  "scene": 0,
  "scenes": [
    {
      "name": "OSG_Scene",
      "nodes": [
        0
      ]
    }
  ],
  "textures": [
    {
      "sampler": 0,
      "source": 0
    }
  ]
}

