{
  "accessors": [
    {
      "bufferView": 1,
      "componentType": 5126,
      "count": 13168,
      "max": [
        2.0745961666107178,
        0.69579660892486572,
        0.8195720911026001
      ],
      "min": [
        -0.93136906623840332,
        -0.69579672813415527,
        -1.4067947864532471
      ],
      "type": "VEC3"
    },
    {
      "bufferView": 1,
      "byteOffset": 158016,
      "componentType": 5126,
      "count": 13168,
      "max": [
        1,
        1,
        0.99994993209838867
      ],
      "min": [
        -1,
        -1,
        -0.99999064207077026
      ],
      "type": "VEC3"
    },
    {
      "bufferView": 0,
      "componentType": 5125,
      "count": 79080,
      "max": [
        13167
      ],
      "min": [
        0
      ],
      "type": "SCALAR"
    },
    {
      "bufferView": 1,
      "byteOffset": 316032,
      "componentType": 5126,
      "count": 2404,
      "max": [
        0.59534388780593872,
        0.60260266065597534,
        0.28158530592918396
      ],
      "min": [
        -0.60986149311065674,
        -0.60260266065597534,
        -0.29617241024971008
      ],
      "type": "VEC3"
    },
    {
      "bufferView": 1,
      "byteOffset": 344880,
      "componentType": 5126,
      "count": 2404,
      "max": [
        0.99435502290725708,
        0.99435460567474365,
        0.99996745586395264
      ],
      "min": [
        -0.99435502290725708,
        -0.9943547248840332,
        -0.99996745586395264
      ],
      "type": "VEC3"
    },
    {
      "bufferView": 0,
      "byteOffset": 316320,
      "componentType": 5125,
      "count": 14400,
      "max": [
        2403
      ],
      "min": [
        0
      ],
      "type": "SCALAR"
    },
    {
      "bufferView": 1,
      "byteOffset": 373728,
      "componentType": 5126,
      "count": 9222,
      "max": [
        0.021736925467848778,
        0.024072380736470222,
        0.023612909018993378
      ],
      "min": [
        -0.026407856494188309,
        -0.024072390049695969,
        -0.044375535100698471
      ],
      "type": "VEC3"
    },
    {
      "bufferView": 1,
      "byteOffset": 484392,
      "componentType": 5126,
      "count": 9222,
      "max": [
        1,
        1,
        1
      ],
      "min": [
        -1,
        -1,
        -1
      ],
      "type": "VEC3"
    },
    {
      "bufferView": 0,
      "byteOffset": 373920,
      "componentType": 5125,
      "count": 55296,
      "max": [
        9221
      ],
      "min": [
        0
      ],
      "type": "SCALAR"
    },
    {
      "bufferView": 1,
      "byteOffset": 595056,
      "componentType": 5126,
      "count": 5634,
      "max": [
        0.029645781964063644,
        0.029645763337612152,
        0.017583383247256279
      ],
      "min": [
        -0.029645770788192749,
        -0.029645780101418495,
        -0.018222182989120483
      ],
      "type": "VEC3"
    },
    {
      "bufferView": 1,
      "byteOffset": 662664,
      "componentType": 5126,
      "count": 5634,
      "max": [
        0.9999966025352478,
        0.9999966025352478,
        1
      ],
      "min": [
        -0.9999966025352478,
        -0.9999966025352478,
        -1
      ],
      "type": "VEC3"
    },
    {
      "bufferView": 0,
      "byteOffset": 595104,
      "componentType": 5125,
      "count": 33792,
      "max": [
        5633
      ],
      "min": [
        0
      ],
      "type": "SCALAR"
    },
    {
      "bufferView": 1,
      "byteOffset": 730272,
      "componentType": 5126,
      "count": 65532,
      "max": [
        0.058687407523393631,
        0.0099403383210301399,
        -0.058519791811704636
      ],
      "min": [
        0.036033142358064651,
        -0.0099397534504532814,
        -0.091202676296234131
      ],
      "type": "VEC3"
    },
    {
      "bufferView": 1,
      "byteOffset": 1516656,
      "componentType": 5126,
      "count": 65532,
      "max": [
        0.99939256906509399,
        1,
        0.99999994039535522
      ],
      "min": [
        -0.99998444318771362,
        -1,
        -0.99999982118606567
      ],
      "type": "VEC3"
    },
    {
      "bufferView": 0,
      "byteOffset": 730272,
      "componentType": 5125,
      "count": 347436,
      "max": [
        65531
      ],
      "min": [
        0
      ],
      "type": "SCALAR"
    },
    {
      "bufferView": 1,
      "byteOffset": 2303040,
      "componentType": 5126,
      "count": 65532,
      "max": [
        0.055569816380739212,
        0.0099401557818055153,
        -0.028011459857225418
      ],
      "min": [
        0.027968067675828934,
        -0.0099400226026773453,
        -0.063204027712345123
      ],
      "type": "VEC3"
    },
    {
      "bufferView": 1,
      "byteOffset": 3089424,
      "componentType": 5126,
      "count": 65532,
      "max": [
        0.97548335790634155,
        1,
        0.99999415874481201
      ],
      "min": [
        -0.99998921155929565,
        -1,
        -0.99998986721038818
      ],
      "type": "VEC3"
    },
    {
      "bufferView": 0,
      "byteOffset": 2120016,
      "componentType": 5125,
      "count": 347460,
      "max": [
        65531
      ],
      "min": [
        0
      ],
      "type": "SCALAR"
    },
    {
      "bufferView": 1,
      "byteOffset": 3875808,
      "componentType": 5126,
      "count": 65532,
      "max": [
        0.046694595366716385,
        0.0099398922175168991,
        0.00022696283122058958
      ],
      "min": [
        0.014889349229633808,
        -0.0099402265623211861,
        -0.036248143762350082
      ],
      "type": "VEC3"
    },
    {
      "bufferView": 1,
      "byteOffset": 4662192,
      "componentType": 5126,
      "count": 65532,
      "max": [
        0.93891012668609619,
        1,
        0.99999773502349854
      ],
      "min": [
        -0.9924774169921875,
        -1,
        -0.98911589384078979
      ],
      "type": "VEC3"
    },
    {
      "bufferView": 0,
      "byteOffset": 3509856,
      "componentType": 5125,
      "count": 347205,
      "max": [
        65531
      ],
      "min": [
        0
      ],
      "type": "SCALAR"
    },
    {
      "bufferView": 1,
      "byteOffset": 5448576,
      "componentType": 5126,
      "count": 65532,
      "max": [
        0.031878072768449783,
        0.0099396854639053345,
        0.024791773408651352
      ],
      "min": [
        -0.0029646710027009249,
        -0.0099403010681271553,
        -0.011534635908901691
      ],
      "type": "VEC3"
    },
    {
      "bufferView": 1,
      "byteOffset": 6234960,
      "componentType": 5126,
      "count": 65532,
      "max": [
        0.8641243577003479,
        1,
        0.99785631895065308
      ],
      "min": [
        -0.96418857574462891,
        -1,
        -0.93785661458969116
      ],
      "type": "VEC3"
    },
    {
      "bufferView": 0,
      "byteOffset": 4898676,
      "componentType": 5125,
      "count": 347214,
      "max": [
        65531
      ],
      "min": [
        0
      ],
      "type": "SCALAR"
    },
    {
      "bufferView": 1,
      "byteOffset": 7021344,
      "componentType": 5126,
      "count": 65532,
      "max": [
        0.011489470489323139,
        0.0099396994337439537,
        0.044456351548433304
      ],
      "min": [
        -0.024993252009153366,
        -0.0099403010681271553,
        0.0099229840561747551
      ],
      "type": "VEC3"
    },
    {
      "bufferView": 1,
      "byteOffset": 7807728,
      "componentType": 5126,
      "count": 65532,
      "max": [
        0.94650328159332275,
        1,
        0.99957764148712158
      ],
      "min": [
        -0.99339097738265991,
        -1,
        -0.84421205520629883
      ],
      "type": "VEC3"
    },
    {
      "bufferView": 0,
      "byteOffset": 6287532,
      "componentType": 5125,
      "count": 347829,
      "max": [
        65531
      ],
      "min": [
        0
      ],
      "type": "SCALAR"
    },
    {
      "bufferView": 1,
      "byteOffset": 8594112,
      "componentType": 5126,
      "count": 65532,
      "max": [
        -0.013497407548129559,
        0.0099399406462907791,
        0.059170801192522049
      ],
      "min": [
        -0.049998652189970016,
        -0.0099402144551277161,
        0.027281586080789566
      ],
      "type": "VEC3"
    },
    {
      "bufferView": 1,
      "byteOffset": 9380496,
      "componentType": 5126,
      "count": 65532,
      "max": [
        0.98772859573364258,
        1,
        0.99550551176071167
      ],
      "min": [
        -0.99999332427978516,
        -1,
        -0.91330796480178833
      ],
      "type": "VEC3"
    },
    {
      "bufferView": 0,
      "byteOffset": 7678848,
      "componentType": 5125,
      "count": 346746,
      "max": [
        65531
      ],
      "min": [
        0
      ],
      "type": "SCALAR"
    },
    {
      "bufferView": 1,
      "byteOffset": 10166880,
      "componentType": 5126,
      "count": 65532,
      "max": [
        -0.041440542787313461,
        0.0099403169006109238,
        0.069213420152664185
      ],
      "min": [
        -0.077071614563465118,
        -0.0099399769678711891,
        0.040528077632188797
      ],
      "type": "VEC3"
    },
    {
      "bufferView": 1,
      "byteOffset": 10953264,
      "componentType": 5126,
      "count": 65532,
      "max": [
        0.99986910820007324,
        1,
        0.99993228912353516
      ],
      "min": [
        -0.99999994039535522,
        -1,
        -0.96113109588623047
      ],
      "type": "VEC3"
    },
    {
      "bufferView": 0,
      "byteOffset": 9065832,
      "componentType": 5125,
      "count": 346014,
      "max": [
        65531
      ],
      "min": [
        0
      ],
      "type": "SCALAR"
    },
    {
      "bufferView": 1,
      "byteOffset": 11739648,
      "componentType": 5126,
      "count": 34494,
      "max": [
        0.074919037520885468,
        0.07028922438621521,
        0.083350703120231628
      ],
      "min": [
        -0.10317400842905045,
        -0.07028844952583313,
        -0.13133072853088379
      ],
      "type": "VEC3"
    },
    {
      "bufferView": 1,
      "byteOffset": 12153576,
      "componentType": 5126,
      "count": 34494,
      "max": [
        1,
        1,
        1
      ],
      "min": [
        -1,
        -1,
        -1
      ],
      "type": "VEC3"
    },
    {
      "bufferView": 0,
      "byteOffset": 10449888,
      "componentType": 5125,
      "count": 188532,
      "max": [
        34493
      ],
      "min": [
        0
      ],
      "type": "SCALAR"
    }
  ],
  "asset": {
    "generator": "Sketchfab (OSG glTF plugin)",
    "version": "2.0"
  },
  "bufferViews": [
    {
      "buffer": 0,
      "byteLength": 11204016,
      "byteOffset": 0,
      "name": "floatBufferViews",
      "target": 34963
    },
    {
      "buffer": 0,
      "byteLength": 12567504,
      "byteOffset": 11204016,
      "byteStride": 12,
      "name": "floatBufferViews",
      "target": 34962
    }
  ],
  "buffers": [
    {
      "byteLength": 23771520,
      "uri": "lamp.bin"
    }
  ],
  "extensionsRequired": [
    "KHR_materials_pbrSpecularGlossiness"
  ],
  "extensionsUsed": [
    "KHR_materials_pbrSpecularGlossiness"
  ],
  "materials": [
    {
      "doubleSided": true,
      "emissiveFactor": [
        0,
        0,
        0
      ],
      "extensions": {
        "KHR_materials_pbrSpecularGlossiness": {
          "diffuseFactor": [
            0,
            0,
            0,
            1
          ],
          "glossinessFactor": 0.91025152440000001,
          "specularFactor": [
            0,
            0,
            0
          ]
        }
      },
      "name": "Chorn.001"
    },
    {
      "doubleSided": true,
      "emissiveFactor": [
        0,
        0,
        0
      ],
      "extensions": {
        "KHR_materials_pbrSpecularGlossiness": {
          "diffuseFactor": [
            0.80000000000000004,
            0.80000000000000004,
            0.80000000000000004,
            1
          ],
          "glossinessFactor": 0.76391006100000003,
          "specularFactor": [
            0.41634908539999999,
            0.41634908539999999,
            0.41634908539999999
          ]
        }
      },
      "name": "bel.001"
    },
    {
      "doubleSided": true,
      "emissiveFactor": [
        0,
        0,
        0
      ],
      "extensions": {
        "KHR_materials_pbrSpecularGlossiness": {
          "diffuseFactor": [
            0.26676,
            0.26676,
            0.26676,
            1
          ],
          "glossinessFactor": 0,
          "specularFactor": [
            1,
            1,
            1
          ]
        }
      },
      "name": "Material.002"
    },
    {
      "doubleSided": true,
      "emissiveFactor": [
        1,
        1,
        1
      ],
      "extensions": {
        "KHR_materials_pbrSpecularGlossiness": {
          "diffuseFactor": [
            0.80000000000000004,
            0.80000000000000004,
            0.80000000000000004,
            1
          ],
          "glossinessFactor": 0,
          "specularFactor": [
            0.45903201220000001,
            0.45903201220000001,
            0.45903201220000001
          ]
        }
      },
      "name": "Material.003"
    },
    {
      "doubleSided": true,
      "emissiveFactor": [
        0,
        0,
        0
      ],
      "extensions": {
        "KHR_materials_pbrSpecularGlossiness": {
          "diffuseFactor": [
            0,
            0,
            0,
            1
          ],
          "glossinessFactor": 0,
          "specularFactor": [
            0,
            0,
            0
          ]
        }
      },
      "name": "Plast.001"
    }
  ],
  "meshes": [
    {
      "name": "Cylinder.000_Chorn.001_0",
      "primitives": [
        {
          "attributes": {
            "NORMAL": 1,
            "POSITION": 0
          },
          "indices": 2,
          "material": 0,
          "mode": 4
        }
      ]
    },
    {
      "name": "Cylinder.004_bel.001_0",
      "primitives": [
        {
          "attributes": {
            "NORMAL": 4,
            "POSITION": 3
          },
          "indices": 5,
          "material": 1,
          "mode": 4
        }
      ]
    },
    {
      "name": "Sphere.002_Material.002_0",
      "primitives": [
        {
          "attributes": {
            "NORMAL": 7,
            "POSITION": 6
          },
          "indices": 8,
          "material": 2,
          "mode": 4
        }
      ]
    },
    {
      "name": "Sphere_Material.003_0",
      "primitives": [
        {
          "attributes": {
            "NORMAL": 10,
            "POSITION": 9
          },
          "indices": 11,
          "material": 3,
          "mode": 4
        }
      ]
    },
    {
      "name": "Cylinder.001_Plast.001_0",
      "primitives": [
        {
          "attributes": {
            "NORMAL": 13,
            "POSITION": 12
          },
          "indices": 14,
          "material": 4,
          "mode": 4
        }
      ]
    },
    {
      "name": "Cylinder.001_Plast.001_0",
      "primitives": [
        {
          "attributes": {
            "NORMAL": 16,
            "POSITION": 15
          },
          "indices": 17,
          "material": 4,
          "mode": 4
        }
      ]
    },
    {
      "name": "Cylinder.001_Plast.001_0",
      "primitives": [
        {
          "attributes": {
            "NORMAL": 19,
            "POSITION": 18
          },
          "indices": 20,
          "material": 4,
          "mode": 4
        }
      ]
    },
    {
      "name": "Cylinder.001_Plast.001_0",
      "primitives": [
        {
          "attributes": {
            "NORMAL": 22,
            "POSITION": 21
          },
          "indices": 23,
          "material": 4,
          "mode": 4
        }
      ]
    },
    {
      "name": "Cylinder.001_Plast.001_0",
      "primitives": [
        {
          "attributes": {
            "NORMAL": 25,
            "POSITION": 24
          },
          "indices": 26,
          "material": 4,
          "mode": 4
        }
      ]
    },
    {
      "name": "Cylinder.001_Plast.001_0",
      "primitives": [
        {
          "attributes": {
            "NORMAL": 28,
            "POSITION": 27
          },
          "indices": 29,
          "material": 4,
          "mode": 4
        }
      ]
    },
    {
      "name": "Cylinder.001_Plast.001_0",
      "primitives": [
        {
          "attributes": {
            "NORMAL": 31,
            "POSITION": 30
          },
          "indices": 32,
          "material": 4,
          "mode": 4
        }
      ]
    },
    {
      "name": "Cylinder.001_Plast.001_0",
      "primitives": [
        {
          "attributes": {
            "NORMAL": 34,
            "POSITION": 33
          },
          "indices": 35,
          "material": 4,
          "mode": 4
        }
      ]
    }
  ],
  "nodes": [
    {
      "children": [
        1
      ],
      "name": "RootNode (gltf orientation matrix)",
      "rotation": [
        -0.70710678118654746,
        -0,
        -0,
        0.70710678118654757
      ]
    },
    {
      "children": [
        2
      ],
      "name": "RootNode (model correction matrix)"
    },
    {
      "children": [
        3
      ],
      "matrix": [
        1,
        0,
        0,
        0,
        0,
        0,
        1,
        0,
        0,
        -1,
        0,
        0,
        0,
        0,
        0,
        1
      ],
      "name": "312d6052a11245fd9f76004028cba0d8.fbx"
    },
    {
      "children": [
        4,
        7,
        10,
        13,
        16
      ],
      "name": "RootNode"
    },
    {
      "children": [
        5
      ],
      "matrix": [
        9.7401260017398492,
        -2.2649467139885018,
        -5.2340172381727874e-07,
        0,
        -6.0880374612900209e-07,
        -3.0720676755547985e-07,
        -10.00000190734861,
        0,
        2.2649467139884805,
        9.7401260017398581,
        -4.3711398400380776e-07,
        0,
        10.59763240814209,
        15.11961555480957,
        -4.4091342488172813e-07,
        1
      ],
      "name": "Cylinder.000"
    },
    {
      "children": [
        6
      ],
      "name": "Geode"
    },
    {
      "mesh": 0,
      "name": "Cylinder.000_Chorn.001_0"
    },
    {
      "children": [
        8
      ],
      "matrix": [
        9.7401260017398492,
        -2.2649467139885018,
        -5.2340172381727874e-07,
        0,
        -6.0880374612900209e-07,
        -3.0720676755547985e-07,
        -10.00000190734861,
        0,
        2.2649467139884805,
        9.7401260017398581,
        -4.3711398400380776e-07,
        0,
        7.3795943260192871,
        14.750419616699219,
        1.1074533290411637e-07,
        1
      ],
      "name": "Cylinder.004"
    },
    {
      "children": [
        9
      ],
      "name": "Geode"
    },
    {
      "mesh": 1,
      "name": "Cylinder.004_bel.001_0"
    },
    {
      "children": [
        11
      ],
      "matrix": [
        120.65656108837092,
        -28.057199983912749,
        -2.593471707543335e-06,
        0,
        -3.7524926255323275e-06,
        -4.68665832511965e-06,
        -123.87578582763656,
        0,
        28.057199983912614,
        120.65656108837085,
        -5.4147830996697041e-06,
        0,
        8.410374641418457,
        18.238622665405273,
        1.1169461231474997e-06,
        1
      ],
      "name": "Sphere.002"
    },
    {
      "children": [
        12
      ],
      "name": "Geode"
    },
    {
      "mesh": 2,
      "name": "Sphere.002_Material.002_0"
    },
    {
      "children": [
        14
      ],
      "matrix": [
        97.401249208214409,
        -22.649463096468004,
        -3.1404101272861909e-06,
        0,
        -4.0488376651381941e-06,
        -3.5462577319123056e-06,
        -99.999999999999858,
        0,
        22.649463096467858,
        97.401249208214395,
        -4.3711393398009171e-06,
        0,
        6.5425419807434082,
        11.483562469482422,
        8.2407581203369773e-07,
        1
      ],
      "name": "Sphere"
    },
    {
      "children": [
        15
      ],
      "name": "Geode"
    },
    {
      "mesh": 3,
      "name": "Sphere_Material.003_0"
    },
    {
      "children": [
        17
      ],
      "matrix": [
        100,
        0,
        0,
        0,
        0,
        -1.6292067939183141e-05,
        -99.999999999998678,
        0,
        0,
        99.999999999998678,
        -1.6292067939183141e-05,
        0,
        20.911041259765625,
        12.871763229370117,
        3.8003661757102236e-05,
        1
      ],
      "name": "Cylinder.001"
    },
    {
      "children": [
        18,
        19,
        20,
        21,
        22,
        23,
        24,
        25
      ],
      "name": "Geode"
    },
    {
      "mesh": 4,
      "name": "Cylinder.001_Plast.001_0"
    },
    {
      "mesh": 5,
      "name": "Cylinder.001_Plast.001_0"
    },
    {
      "mesh": 6,
      "name": "Cylinder.001_Plast.001_0"
    },
    {
      "mesh": 7,
      "name": "Cylinder.001_Plast.001_0"
    },
    {
      "mesh": 8,
      "name": "Cylinder.001_Plast.001_0"
    },
    {
      "mesh": 9,
      "name": "Cylinder.001_Plast.001_0"
    },
    {
      "mesh": 10,
      "name": "Cylinder.001_Plast.001_0"
    },
    {
      "mesh": 11,
      "name": "Cylinder.001_Plast.001_0"
    }
  ],
  "scene": 0,
  "scenes": [
    {
      "name": "OSG_Scene",
      "nodes": [
        0
      ]
    }
  ]
}

